<svg xmlns="http://www.w3.org/2000/svg" width="20" height="20" viewBox="0 0 20 20">
    <g fill="none" fill-rule="nonzero">
        <path fill="#FF2500" d="M10 0C4.477 0 0 4.477 0 10s4.477 10 10 10 10-4.477 10-10S15.523 0 10 0zM6.406 3.972c.206-.012.393.111.534.33l1.367 2.593a.752.752 0 0 1-.153.855l-.626.626a.307.307 0 0 0-.065.179c.24.93.969 1.787 1.612 2.376.642.59 1.333 1.388 2.23 1.578.11.03.247.042.326-.032l.727-.741c.252-.19.615-.283.883-.127h.012l2.467 1.456c.362.227.4.666.14.933l-1.699 1.686c-.25.257-.584.343-.908.344-1.432-.043-2.786-.746-3.898-1.469-1.824-1.327-3.498-2.974-4.55-4.963-.402-.834-.876-1.899-.83-2.83.004-.35.098-.693.345-.919l1.7-1.699a.665.665 0 0 1 .386-.176z"/>
        <path d="M0 0h20v20H0z"/>
    </g>
</svg>
